<svg xmlns="http://www.w3.org/2000/svg" width="69" height="49" fill="none"><path stroke="#01005b" stroke-width="2" d="M9 14.5h11.5M9 28.5h11.5M0 21.5h20.5"/><g fill="#01005b" clip-path="url(#a)"><path d="M48.959 35.178h-13.49v-2.042h11.448V9.207H21.542v23.93h4.263v2.041H19.5V7.166h29.459z"/><path d="M68.5 35.178h-6.458v-2.042h4.416v-9.312l-8.934-10.087H48.96v19.4h3.421v2.04h-5.463V11.696h11.526L68.5 23.05z"/><path d="M57.273 41.835a6.1 6.1 0 0 1-6.092-6.093 6.1 6.1 0 0 1 6.092-6.092 6.1 6.1 0 0 1 6.093 6.093 6.1 6.1 0 0 1-6.093 6.091m0-10.143a4.055 4.055 0 0 0-4.05 4.05 4.055 4.055 0 0 0 4.05 4.05 4.055 4.055 0 0 0 4.051-4.05 4.055 4.055 0 0 0-4.051-4.05M30.726 41.835a6.1 6.1 0 0 1-6.092-6.093 6.1 6.1 0 0 1 6.092-6.092 6.1 6.1 0 0 1 6.092 6.093 6.1 6.1 0 0 1-6.092 6.091m0-10.143a4.055 4.055 0 0 0-4.05 4.05 4.055 4.055 0 0 0 4.05 4.05 4.055 4.055 0 0 0 4.05-4.05 4.055 4.055 0 0 0-4.05-4.05"/></g><defs><clipPath id="a"><path fill="#fff" d="M19.5 0h49v49h-49z"/></clipPath></defs></svg>